<svg xmlns="http://www.w3.org/2000/svg" width="64" height="64" viewBox="0 0 64 64"><g transform="matrix(.67028 0 0 .67028 -220.557 -745.382)"><ellipse cx="374.516" cy="1197.793" fill="#e8edf1" rx="38.828" ry="9.277"/><path style="line-height:normal;text-indent:0;text-align:start;text-decoration-line:none;text-decoration-style:solid;text-decoration-color:#000;text-transform:none;block-progression:tb;white-space:normal;isolation:auto;mix-blend-mode:normal;solid-color:#000;solid-opacity:1" fill="#33552b" fill-rule="evenodd" stroke="#000" stroke-linecap="round" stroke-linejoin="round" d="m 377.18445,1127.0084 c 0.26724,0.6851 0.47859,1.3899 0.62982,2.1071 0.6049,2.8685 0.23885,5.8918 -1.03631,8.5675 -1.27512,2.6757 -3.4395,4.961 -6.13279,6.4747 -2.94781,1.6567 -6.25258,2.301 -9.29481,3.1119 -3.0318,0.8082 -5.98455,1.8752 -7.94318,3.8484 -1.28817,1.2977 -2.12924,2.9975 -2.3502,4.7504 -0.22098,1.7529 0.17481,3.5852 1.1059,5.1205 0.93108,1.5352 2.41148,2.7968 4.13721,3.525 1.72571,0.7283 3.18308,1.235 5.04105,0.8767 0.24811,0.5527 0.44387,1.1153 1.17936,1.5746 -2.29865,0.4433 -4.94678,0.2095 -7.08183,-0.6915 -2.13507,-0.901 -3.93276,-2.4326 -5.0846,-4.3321 -1.15195,-1.8994 -1.63274,-4.125 -1.35937,-6.2937 0.27337,-2.1687 1.29505,-4.2337 2.88879,-5.8392 2.40216,-2.42 5.75457,-3.5577 8.89853,-4.3957 3.13352,-0.8353 6.23877,-1.4736 8.79192,-2.9085 2.31987,-1.3038 4.20751,-3.296 5.30585,-5.6007 1.09837,-2.3048 1.4173,-4.9418 0.89626,-7.4126 -0.52103,-2.4708 -1.88582,-4.7966 -3.8375,-6.5384 -1.95169,-1.7419 -4.50678,-2.9145 -7.18214,-3.2964 l 0.31915,-1.9099 c 3.106,0.4434 6.03612,1.788 8.30196,3.8103 1.69938,1.5167 3.00516,3.3964 3.80693,5.4516 z" color="#000" enable-background="accumulate" font-family="sans-serif" font-weight="400" overflow="visible"/><path fill="#33552b" stroke="#000" stroke-linecap="round" stroke-linejoin="round" d="m 357.37509,1117.7966 c 3.77663,0.1052 4.19402,1.8418 5.46202,2.62 1.268,0.7782 2.97468,0.4537 3.81198,-0.7249 0.83728,-1.1785 0.48812,-2.7647 -0.77987,-3.543 -1.26801,-0.7782 -6.42562,-1.9207 -8.49413,1.6479 z"/><g stroke-width="1.883" transform="matrix(.55093 0 0 .51205 137.074 705.546)"><path fill="#d7ede6" fill-rule="evenodd" stroke="#000" d="M421.21201 953.35159c-1.107-.59859-2.8125 4.6875-2.8125 4.6875 0 0 5.19855-1.4426 4.8125-2.5625-.30711-.8909-.98591-1.57665-2-2.125zM393.70247 953.86378c-1.05658-.50886-2.6844 3.98477-2.6844 3.98477 0 0 4.96176-1.22634 4.5933-2.17835-.29312-.75734-.94101-1.34028-1.9089-1.80642z"/><path fill="#7fc8ad" fill-rule="evenodd" d="m 381.98897,909.23827 2.20971,-5.04089 0.89769,-4.28131 1.24296,-4.76469 2.27876,-6.62912 1.24297,-1.86444 6.14575,2.27876 5.52427,3.38361 4.90279,0 9.87464,0.20716 5.59332,0.96675 2.15812,0.77141 4.90723,-2.31934 4.29394,-1.52494 1.0358,-0.44885 1.6918,3.93604 0.8977,3.03835 1.79539,5.17901 0.75958,6.00764 5.24806,2.76214 5.933,3.4383 7.42188,7.03126 6.93359,10.15625 3.61328,8.78906 0.73243,4.83398 -0.48828,5.66406 -2.14844,6.83594 -3.61328,3.22266 -5.71289,1.46484 -4.6875,-1.07422 -3.32032,-2.49023 -2.14843,-3.56445 -0.39063,-1.07422 -2.83203,-0.39063 -0.14258,0.32813 -3.15793,3.79213 c -1.10324,1.3248 -1.54431,2.10678 -2.98544,2.97081 -1.21626,0.72921 -2.30774,1.72649 -3.64878,2.18762 -1.10618,0.38037 -3.81889,0.94869 -4.98305,0.83438 -2.11556,-0.20772 -4.31058,-0.32796 -5.94687,-1.6849 -0.58684,-0.48665 -0.90355,-1.26724 -1.10486,-2.00255 -0.40135,-1.46593 -0.2486,-4.86689 -0.2486,-4.86689 l -0.69053,0.8977 c -1.79062,-1.80541 -3.24005,-3.75177 -4.48847,-5.9386 l -1.38107,-1.1739 -2.69308,-0.75959 c 0,0 -0.71539,2.05417 -1.17391,3.03835 -0.98758,2.11978 -1.7799,4.44372 -3.38361,6.14575 -1.21309,1.28745 -2.79906,2.3068 -4.48848,2.83119 -1.122,0.34826 -2.37253,0.38213 -3.52172,0.13811 -1.68162,-0.35707 -3.30209,-1.18283 -4.62658,-2.27876 -1.44356,-1.19446 -2.50316,-2.83458 -3.38361,-4.48848 -0.96119,-1.80557 -2.00255,-5.80048 -2.00255,-5.80048 l -0.96675,-6.28386 0.13811,-5.38616 -4.83644,-3.88672 -4.49219,-4.54101 -3.6621,-4.05274 0.0976,-1.85547 1.5625,-2.09961 1.21426,-2.00171 1.1739,-3.55625 z"/><path fill="#d8ede6" fill-rule="evenodd" d="m 389.41173,887.27964 -3.25424,9.06914 -1.11397,3.23933 c 0,0 -0.002,1.49318 0.60173,1.93081 0.86643,0.62827 2.53126,0.93651 3.42831,0.33945 1.40288,-0.9337 0.83809,-2.98307 0.53191,-4.45324 -0.86882,-4.17224 -0.14611,-6.85499 -0.14611,-6.85499 l 0.38194,-2.99848"/><path fill="#fff" fill-rule="evenodd" d="m 420.46201,912.83198 -1.9375,2.25 -2,4.125 -2.125,5.5625 2.625,0.875 3.5625,0.4375 1.8125,0.0625 0.0625,-1.0625 -1.1875,-2.5 -1.0625,-4.8125 0.1875,-3.5625 z"/><path fill="#be3e57" fill-rule="evenodd" d="m 426.14951,908.26948 -3.0625,2 -2.125,2.0625 -0.625,2.3125 -0.0625,4.1875 0.625,3 1.375,3.25 0.5,1 5.0625,-0.8125 4.75,-0.9375 0.6875,-1.75 -0.625,-3.625 -1,-3.8125 -1.875,-3.5 -1.6875,-1.875 z"/><path fill="#c03d55" fill-rule="evenodd" d="m 388.17952,921.9231 -1.01646,-0.44195 -0.13259,-3.31456 1.01647,-7.38043 1.37002,-3.31456 1.67938,-2.38649 0.48613,-1.06066 1.28163,2.51907 0.7955,2.43068 0.57452,5.52427 -0.39774,5.3033 -1.28164,2.87263 -3.62392,-0.39775 z"/><path fill="#d8ede6" fill-rule="evenodd" d="m 434.2326,890.71271 -9.04354,4.12685 -3.20239,1.50587 c 0,0 -1.18226,1.03051 -1.18144,1.73008 9.4e-4,1.00406 0.71381,2.31208 1.70156,2.48951 1.54469,0.27748 2.84114,-1.51024 3.82809,-2.72759 2.80089,-3.45472 5.33819,-4.83329 5.33819,-4.83329 l 2.59122,-1.8209"/><path fill="#4cb08b" fill-rule="evenodd" d="M429.07738 963.64165l17.78858-26.24138c0 0-.0828.22234.27665 2.43719.34098 2.10119-.11245 4.27671-.53033 6.36396-.37679 1.88203-.95836 3.7397-1.76777 5.48007-.70328 1.51217-1.62866 2.92555-2.65165 4.24264-1.09933 1.41538-2.34569 2.72972-3.71231 3.88909-1.19647 1.01502-2.40067 2.15523-3.88908 2.65165-1.23104.41058-5.51409 1.17678-5.51409 1.17678zM443.16295 910.19317l12.01529 7.45776 9.52937 12.29152 4.69563 10.2199-.27621 10.2199-2.34782 8.14831-4.28131 3.17645-6.0767.55243c0 0-2.66404-.60029-3.64012-1.51832-.40078-.37694-1.29292-1.02607-1.29292-1.02607 22.21341-8.40895 5.84665-40.26601-8.32521-49.52187z"/><path fill="#7aa659" fill-rule="evenodd" d="m 412.22687,892.07139 3.52172,-5.66238 4.0051,-3.10739 5.45521,-1.79539 3.93605,-0.13811 2.62403,-0.41432 5.66238,0.34527 3.79793,0.0691 2.14066,0 3.1074,-0.34527 2.90024,-0.69053 1.72634,-1.24296 2.62403,-1.58823 1.24296,-1.24296 1.31201,1.72633 2.07161,-1.58822 1.0358,2.0716 2.00254,-1.51918 0.75959,1.72634 0.20716,1.51917 1.38107,-0.55242 0.94861,1.36497 1.3916,-0.24414 0.3418,0.83008 -0.31738,1.78223 -0.6836,2.70996 0.11436,2.81005 0.15537,1.53644 0.48711,2.34296 0.70801,1.80664 1.0498,2.61231 1.58692,2.70996 1.80664,2.88086 1.46484,2.83203 0.83008,2.44141 0.92773,2.97851 0,2.73438 -0.0976,3.46679 -0.83008,3.41797 -2.44141,5.17578 -2.09961,2.63672 -2.58789,2.49024 -1.2207,0.53711 -3.41797,-5.66408 -2.49023,-3.22265 -2.49024,-2.88086 -2.09961,-1.9043 -2.29492,-1.70898 -2.29492,-2.09961 -3.41797,-2.00196 -2.05078,-1.2207 -2.39258,-1.2207 -1.36719,-0.58594 -1.12304,-0.39063 -1.02539,-5.17578 -0.58594,-2.05078 -0.24414,-1.66015 -0.20371,-1.35268 -1.99356,-5.58092 -0.83008,-2.49023 -0.55997,-0.35337 -2.41687,1.17391 -1.51918,0.62148 -2.83119,1.0358 -1.79538,1.0358 -1.51918,0.62148 -2.20971,-0.48337 -2.14065,-0.69053 -3.17646,-0.27622 -2.90024,-0.48337 z"/><path fill="#a9d691" fill-rule="evenodd" d="m 435.68855,892.16636 c 0,0 5.40137,-0.69046 8.04334,-1.32583 2.07461,-0.49892 4.28473,-0.8211 6.09879,-1.94454 1.18683,-0.735 2.15014,-1.83859 2.91682,-3.0052 0.50784,-0.77275 1.06066,-2.56327 1.06066,-2.56327 0,0 -3.22618,0.73336 -4.86136,0.97227 -1.259,0.18394 -2.5297,0.29457 -3.8007,0.35356 -1.41269,0.0656 -2.83147,-0.0928 -4.24264,0 -1.57169,0.10334 -3.15595,0.239 -4.68458,0.61872 -1.06759,0.26519 -2.15653,0.57286 -3.09359,1.14905 -0.92352,0.56786 -1.67385,1.3927 -2.38649,2.2097 -0.70922,0.81306 -1.85615,2.65165 -1.85615,2.65165 l -0.26517,1.23744 4.24264,-1.59099 1.67938,-0.88388 z"/><path fill="#a9d691" fill-rule="evenodd" d="m 412.77451,892.26948 2.5,-4.75 4.75,-3.875 6.125,-2.125 5.6875,-0.25 4.3125,0.375 c 0,0 3.57394,0.33721 6.5625,0.0625 1.18814,-0.10921 6.30622,-0.73928 6.30622,-0.73928 0,0 -0.83526,1.93352 -6.1172,2.18436 -5.28194,0.25085 -10.83278,-0.52443 -15.75152,1.36742 -9.73107,5.33744 -8.966,8.58698 -10.875,8 -1.28866,-0.073 -2.48288,0.5637 -3.5,-0.25 z"/><path fill="#4d7f40" fill-rule="evenodd" d="m 464.72412,881.56335 c 0,0 -4.14038,5.24764 -5.17901,8.35546 -1.37722,4.12096 0.54441,8.99125 -1.17391,12.98204 -1.23826,2.87585 -4.56038,6.75982 -7.66492,6.35292 -6.61385,-0.86686 -12.56772,-6.90535 -12.56772,-6.90535 l 1.10485,5.45522 9.66748,5.66238 4.76468,4.1432 5.66238,5.80049 2.9693,4.0051 2.41687,3.45267 4.62658,-3.59078 2.76213,-4.48847 1.58823,-5.17901 0.13811,-4.90279 -1.86445,-7.59587 -3.59077,-6.49102 -1.73852,-3.24698 -1.85547,-5.95703 -0.19531,-4.63867 0.58594,-3.17383 z"/><path fill="none" stroke="#000" stroke-linecap="round" stroke-linejoin="round" d="M412.52439 948.74128c-1.95571 7.19324-6.74366 11.73736-11.6811 11.73736-6.78994 0-11.67557-8.81074-11.67557-20.44257 0-1.40461.0803-2.77711.23336-4.10476M447.15471 937.53399c.99368 4.0726.11652 9.70696-2.71295 15.15334-4.48836 8.63953-11.73958 12.36595-17.20135 10.9331-2.60239-.68271-4.17627-.50906-4.80186-2.49291-1.30223-4.12952.82404-12.02765 3.85427-17.86047 1.07101-2.06155 2.32496-3.90988 3.68165-5.49404M467.9933 955.4022c-1.52636 4.28983-5.54072 7.35257-10.25277 7.35257-6.02567 0-10.91043-5.00843-10.91044-11.18665 0-.90856.10564-1.79182.30501-2.63758"/><path fill="none" stroke="#000" stroke-linecap="round" stroke-linejoin="round" d="M468.32674 938.5885c.75075 2.34996 1.29487 4.99797 1.29487 7.60504 0 3.58569-.56086 6.78041-1.93753 9.83516M439.51631 908.73958c13.52049 5.17022 24.19119 16.32939 28.93736 30.32761M397.07757 894.08053c3.99539-1.03583 8.186-1.587 12.50534-1.587 5.18289 0 10.18042.79358 14.87773 2.26586M433.97554 935.25359c-6.31432 4.66463-16.01203 6.88698-22.68389 6.88698-14.16895 0-26.72432-6.90859-34.48131-17.541 0 0-.59113-.8168-.53617-1.72239.055-.90558.56755-1.40178.56755-1.40178 1.57122-1.41991 2.68251-3.33924 3.08354-5.50767M380.06308 916.32634c1.26277-5.45443 2.0616-8.72668 5.09551-13.22998M434.65359 890.16918c3.73376 8.94335 5.79586 18.75876 5.79586 29.0558M420.57842 896.9785c4.47027-2.73376 9.24711-5.01538 14.26692-6.78128M389.79452 887.12978c4.61206 1.01352 8.85163 3.02091 12.48275 5.78625"/><path fill="#f1f1f1" fill-rule="evenodd" d="m 386.72111,921.56954 -2.34229,-0.79549 -1.5026,-0.92808 0.53033,-3.18198 2.03293,-6.36396 1.98874,-3.75651 1.37002,-2.07712 1.32582,-1.23744 0.35356,-0.22097 1.14905,1.14905 -2.25391,3.62392 -1.4584,4.33103 -0.66292,4.28683 -0.30936,3.97748 z"/><path fill="none" stroke="#000" stroke-linecap="round" stroke-linejoin="round" d="M384.9694 903.29192c0-5.97839 2.05216-11.36708 4.9036-16.15617M423.22269 951.30646c-8.95337-2.60838-12.27463-2.93291-17.66037-5.6475M421.9946 957.19422c.84641-2.53449.0364.42672-2.4947-2.65962-1.10765-1.35062-2.07539-3.53173-3.07112-4.81261"/><path fill="none" stroke="#000" d="m 443.48102,954.29562 c 0.13811,0 3.34909,0 3.34909,0"/><path fill="none" stroke="#000" stroke-linecap="round" stroke-linejoin="round" d="M412.28293 891.93161c8.23569-20.58794 31.38747-3.20454 42.43733-15.91896M465.30625 931.04744c12.9587-8.21144 9.40661-23.59186 5.47511-29.13782-4.80221-6.67473-6.91924-13.79554-4.48063-20.39991"/><path fill="none" stroke="#000" stroke-linecap="round" stroke-linejoin="round" d="M459.09145 921.93238c7.2963-1.16798 10.92721-11.06722 6.16563-19.88465-4.16744-6.87005-3.19036-14.34797-.75174-20.95235M428.08016 892.96822c5.35136-15.97327 23.46699-2.22434 30.8357-14.39976"/><path fill="none" stroke="#000" stroke-linecap="round" stroke-linejoin="round" d="m 454.82167,875.85731 1.12305,2.05078 c 0,0 1.95313,-2.34375 2.34375,-1.61133 0.39063,0.73242 0.83008,2.29492 0.83008,2.29492 0,0 1.61133,-2.24609 2.29492,-1.66015 0.68359,0.58593 0.48828,3.41796 0.48828,3.41796 0,0 1.02539,-0.92773 1.70899,-0.83007 0.68359,0.0976 0.8789,1.61132 0.8789,1.61132 0,0 1.12305,-0.43945 1.46485,-0.39062 0.34179,0.0488 0.19531,1.31836 0.19531,1.31836 l -0.0488,-0.19531"/><path fill="none" stroke="#000" stroke-linecap="round" stroke-linejoin="round" d="m 465.30625,931.04744 c 12.9587,-8.21144 9.40661,-23.59186 5.47511,-29.13782 -4.80221,-6.67473 -6.91924,-13.79554 -4.48063,-20.39991"/><path fill="none" stroke="#000" stroke-linecap="round" stroke-linejoin="round" d="M459.09145 921.93238c7.2963-1.16798 10.92721-11.06722 6.16563-19.88465-4.16744-6.87005-3.19036-14.34797-.75174-20.95235M428.08016 892.96822c5.35136-15.97327 23.46699-2.22434 30.8357-14.39976"/><path fill="none" stroke="#000" stroke-linecap="round" stroke-linejoin="round" d="M454.82167 875.85731l1.12305 2.05078c0 0 1.95313-2.34375 2.34375-1.61133.39063.73242.83008 2.29492.83008 2.29492 0 0 1.61133-2.24609 2.29492-1.66015.68359.58593.48828 3.41796.48828 3.41796 0 0 1.02539-.92773 1.70899-.83007.68359.0976.8789 1.61132.8789 1.61132 0 0 1.12305-.43945 1.46485-.39062.34179.0488.19531 1.31836.19531 1.31836l-.0488-.19531M412.28293 891.93161c8.23569-20.58794 31.38747-3.20454 42.43733-15.91896"/><path fill="#17706c" fill-rule="evenodd" stroke="#000" d="m 450.01447,914.5018 c -12.35761,-1.66732 -6.39693,5.26387 -2.79364,11.52003 1.26857,2.20254 6.54696,2.24847 8.697,1.31356 1.41842,-1.74859 0.0777,-6.68821 0.0777,-6.68821 l -0.5119,-1.68393 z"/><path fill="#d9ede6" fill-rule="evenodd" d="m 397.4632,894.42146 3.35876,2.74004 17.01973,-3.44271 c 0,0 -3.36628,-0.71016 -5.4764,-0.81066 -1.97374,-0.094 -7.4535,0.2811 -9.42202,0.45266 -2.27904,0.19866 -5.48007,1.06067 -5.48007,1.06067 z"/><path fill="#196f6e" fill-rule="evenodd" stroke="#000" d="m 397.48222,945.01136 -4.46339,1.37684 c -0.31043,2.13326 -2.4172,4.92631 -0.53661,6.68566 0,0 1.20878,1.53636 2.0625,1.9375 0.45606,0.21429 1.02481,0.35513 1.5,0.1875 1.61175,-0.56858 3.02624,-2.06472 3.5625,-3.6875 0.34543,-1.04529 -0.1184,-2.32908 -0.4276,-3.27487 -0.39913,-1.22088 -1.6974,-3.22513 -1.6974,-3.22513 z"/><path fill="#d8ede6" fill-rule="evenodd" d="m 389.87343,936.99458 c 0,0 -0.17762,7.58629 1.21975,12.97143 0.65585,2.52749 2.1519,5.08282 3.15342,6.47253 1.0955,1.52012 3.0902,2.52249 3.0902,2.52249 0,0 0.0232,-2.63605 0.033,-4.77205 0.0198,-4.31611 -1.88243,-14.43654 -1.88243,-14.43654 l -2.71301,-1.22437 -2.52555,-1.26248 z" opacity=".222"/><path fill="#196f6e" fill-rule="evenodd" stroke="#000" d="m 424.13283,948.53129 3.44715,-2.2981 c 0,0 1.56971,-1.50161 2.56326,-1.85615 0.47255,-0.16862 1.06824,-0.33952 1.5026,-0.0884 0.45628,0.26379 0.63443,0.8922 0.70711,1.41421 -0.35012,2.30831 -0.6968,4.87579 -1.5026,6.89429 -0.26115,0.63563 -0.50226,1.36725 -1.06066,1.76777 -0.56351,0.40418 -1.34858,0.32984 -2.03293,0.44194 -0.52658,0.0862 -1.06388,0.25973 -1.59099,0.17678 -0.63831,-0.10046 -1.76777,-0.79549 -1.76777,-0.79549 l -0.7955,-1.14905 -0.44194,-1.23744 z"/><path fill="#d7eee7" fill-rule="evenodd" d="m 430.71843,937.7148 -1.63518,1.98873 -3.49134,6.01041 c 0,0 -1.14925,2.86639 -1.63519,4.33103 -0.45369,1.36744 -1.14904,4.46361 -1.14904,4.46361 l -0.0884,1.67937 -0.22097,1.94455 c 0,0 2.8608,-3.51853 3.97747,-5.48008 1.21951,-2.1422 1.57994,-3.9365 1.94455,-6.0104 0.63385,-3.6053 1.14905,-5.03814 1.14905,-5.03814 z" opacity=".376"/><path fill="#196f6e" fill-rule="evenodd" stroke="#000" d="M434.78228 940.17528l1.45841-.81758 1.41421-.77341c0 0 .72415 1.91238.86178 2.91682.067.48899.20191 1.04071-.0221 1.4805-.10029.1969-.31411.35218-.53033.39775-.41435.0873-.87312-.0714-1.23744-.28726-.39944-.23663-.6611-.65873-.92808-1.03856-.40937-.58241-1.01645-1.87826-1.01645-1.87826zM449.37614 943.77051l.92808-.7513 1.63518-1.32583 2.96101-2.2981c0 0 1.12445-.52587 1.63519-.30936.61693.26153 1.10485 1.67938 1.10485 1.67938l.61872 2.82843c0 0 .33051 1.67334.30936 2.51907-.0172.6876-.30936 1.85615-.35356 2.03293-.0442.17678-1.42221 2.19138-2.38648 3.0494-.52849.47025-1.10616 1.05708-1.81196 1.10485-.25669.0174-.50695-.14773-.70711-.30936-.60756-.49059-1.37002-1.90035-1.37002-1.90035l-.92808-1.72357-.66291-2.3423c-.19835-.70085-.66383-1.22193-.97227-2.25389zM460.48462 938.20302l1.50511.72805 1.44359.71708c0 0-1.1538 1.6883-1.89871 2.37601-.36265.33479-.73787.76117-1.22672.82917-.21886.0304-.46857-.056-.62968-.20725-.30872-.28983-.44114-.75686-.47263-1.17916-.0346-.46298.16183-.91912.32051-1.35543.24332-.66902.95853-1.90847.95853-1.90847z"/><path fill="#18706e" fill-rule="evenodd" stroke="#000" d="M398.69056 903.58566c-.76571 1.64593 1.00939 1.68977 2.375 2.5.49927.29069 1.5625.75 1.5625.75l1.3125.6875c0 0 3.17672-1.69095 4.75-2.5625 1.31944-.73093 2.67242-1.37885 3.9375-2.1875.80403-.51394 1.7233-.93688 2.3125-1.6875.23649-.30128.48238-.68212.4375-1.0625-.0542-.45939-.45139-.8359-.8125-1.125-.24772-.19832-.56255-.31961-.875-.375-1.52022-.26949-3.0915.071-4.625.25-1.28262.14972-2.57958.30351-3.8125.6875-1.39761.43529-4 1.8125-4 1.8125zM406.83269 914.23311l.26516 2.82843c0 0 2.24305-.46755 3.00521-1.23744 1.00461-1.0148 2.39154-2.79503 1.59099-3.97747-.33035-.48794-1.21003-.19013-1.76777 0-1.23272.42022-3.09359 2.38648-3.09359 2.38648z"/><g stroke-width="1.832" transform="matrix(1.02775 0 0 1.02774 -9.684 -31.776)"><path fill="none" stroke="#000" stroke-width="1.883" d="m 424.9602,909.14944 c 0,0 2.58159,0.91286 5.28727,7.00446 2.54352,5.72647 1.42483,8.90921 1.42483,8.90921" transform="matrix(.973 0 0 .973 10.454 29.886)"/><path fill="none" stroke="#000" d="m 425.7831,913.83599 c 0,0 -5,2 -8.08823,6.15219 -3.6555,4.91489 -4.91177,10.84781 -4.91177,10.84781 0,0 4.04672,1.6386 9.06905,0.95012 6.93095,-0.95012 8.93095,-1.95012 8.93095,-1.95012"/><path fill="none" stroke="#000" d="m 419.19742,918.21451 c 0,0 -1.48592,3.72888 -0.45012,8.22633 1.0358,4.49746 2.0358,5.39515 2.0358,5.39515"/><ellipse cx="247.359" cy="985.638" fill="#fff" stroke="#000" stroke-linecap="round" stroke-linejoin="round" rx="1.792" ry="4.528" transform="rotate(-10.589)"/></g><g stroke-width="1.501" transform="matrix(1.24821 0 0 1.26022 -74.6 -153.237)"><path fill="none" stroke="#000" d="m 374.30372,853.99692 c 0,0 1.71533,-3.99677 1.07033,-10.11631 -0.52576,-4.9882 -3.93605,-6.76724 -3.93605,-6.76724"/><path fill="none" stroke="#000" d="m 372.68097,838.11464 c 0,0 -1.87276,0.61846 -4.02236,5.71417 -2.25689,5.35002 -2.1234,7.57861 -2.1234,7.57861 0,0 1.09572,0.97454 3.91878,1.69181 2.59437,0.65916 4.195,0.58695 4.195,0.58695"/><path fill="none" stroke="#000" d="m 373.41131,839.07868 c 0,0 -1.97564,2.47137 -3.00911,6.4592 -1.03346,3.98782 -0.58695,7.14703 -0.58695,7.14703"/><ellipse cx="-514.831" cy="759.903" fill="#f1f1f1" stroke="#000" stroke-linecap="round" stroke-linejoin="round" rx="1.216" ry="3.23" transform="matrix(-.9811 -.19347 -.1745 .98466 0 0)"/></g><path fill="#196f6e" fill-rule="evenodd" stroke="#000" d="m 396.69649,910.84685 1.45841,-0.81758 1.41421,-0.77341 c 0,0 0.72415,1.91238 0.86178,2.91682 0.067,0.48899 0.20191,1.04071 -0.0221,1.4805 -0.10029,0.1969 -0.31411,0.35218 -0.53033,0.39775 -0.41435,0.0873 -0.87312,-0.0714 -1.23744,-0.28726 -0.39944,-0.23663 -0.6611,-0.65873 -0.92808,-1.03856 -0.40937,-0.58241 -1.01645,-1.87826 -1.01645,-1.87826 z"/><path fill="#d7ede6" fill-rule="evenodd" stroke="#000" d="M395.8268 956.50113c-1.00616-.52007-2.55629 4.07261-2.55629 4.07261 0 0 4.72498-1.25336 4.37409-2.22636-.27913-.77404-.89609-1.36983-1.8178-1.84625zM401.3938 958.27215c-.77398-.43898-1.96643 3.43752-1.96643 3.43752 0 0 3.63469-1.05791 3.36478-1.87918-.21472-.65333-.68932-1.15622-1.39835-1.55834zM422.76153 959.49598c-.84448-.45582-2.14555 3.56946-2.14555 3.56946 0 0 3.96578-1.09852 3.67128-1.9513-.23428-.67841-.75211-1.2006-1.52573-1.61816zM425.95541 962.46482c-1.10089-.1627-1.03209 4.11774-1.03209 4.11774 0 0 3.96066-2.3404 3.31772-3.06213-.51147-.57417-1.27712-.90655-2.28563-1.05561zM431.09825 963.25182c-1.02871.1982.40193 3.76618.40193 3.76618 0 0 2.76479-3.16618 1.96349-3.57588-.63746-.32593-1.42305-.37188-2.36542-.1903zM450.78431 959.13232c-.9212-.50139-2.20039 3.38779-2.20039 3.38779 0 0 4.23004-.83936 3.88823-1.69835-.27191-.68337-.84396-1.23012-1.68784-1.68944zM455.26478 961.09077c-1.05507-.2112-1.25812 3.64399-1.25812 3.64399 0 0 3.98009-1.87253 3.4034-2.55971-.45878-.5467-1.17875-.89081-2.14528-1.08428zM460.45919 961.1078c-.99947-.16183-1.19182 2.79245-1.19182 2.79245 0 0 3.77033-1.43495 3.22403-1.96155-.43459-.41893-1.11662-.68263-2.03221-.8309z"/><path fill="none" stroke="#000" stroke-linecap="round" d="M402.64951 928.26948l1.375-.625M399.52451 927.89448l-.25-1.125"/><path fill="#d8ede6" fill-rule="evenodd" d="m 421.57911,905.52575 -3.70634,3.46499 -1.31656,1.26796 c 0,0 -0.52985,0.90493 -0.59414,1.54888 -0.0923,0.92421 0.049,2.15446 0.39584,2.3542 0.54237,0.31237 1.18413,-1.2853 1.65942,-2.36939 1.34883,-3.07659 2.40908,-4.2519 2.40908,-4.2519 l 1.12091,-1.58047"/><path fill="none" stroke="#000" stroke-linecap="round" d="m 415.43088,913.56936 c 0,0 0.63648,-2.35555 1.28204,-3.36894 1.9318,-3.03253 2.96796,-3.63106 2.96796,-3.63106"/><g transform="translate(126.219 -21.213)"><path fill="#ab4b57" fill-rule="evenodd" stroke="#000" d="m 253.10566,812.60318 c 0,0 -1.16471,1.11016 -0.61872,1.32583 2.57867,1.01857 12.58547,3.59847 17.85445,6.27557 7.77348,-1.84072 11.28648,-2.04919 21.56675,-2.20971 0,0 4.46262,0.262 6.62913,-0.17678 1.42639,-0.28888 4.06586,-1.59099 4.06586,-1.59099 l -1.59099,1.23744 c 0,0 -5.19127,4.89561 -8.3085,6.54074 -3.30469,1.74405 -3.49538,2.39053 -10.69499,3.35875 -4.43341,0.59621 -10.03966,-0.2526 -10.03966,-0.2526 0,0 -4.49475,-0.52062 -10.83516,-4.76669 -2.11298,-1.41503 -8.77947,-8.59251 -8.77947,-8.59251" transform="translate(3.773 133.406)"/><path fill="#d7ede6" fill-rule="evenodd" stroke="#000" d="M263.83853 950.39508c-.96599-.0375.42046 3.56696.42046 3.56696 0 0 2.56684-2.33276 1.80803-2.8834-.60367-.43809-1.34357-.6492-2.22849-.68356zM294.36922 951.83721c-1.04222.26446 1.6398 3.58168 1.6398 3.58168 0 0 1.95684-3.23522.96403-3.57013-.78984-.26647-1.64906-.25372-2.60383-.0115z"/></g><path fill="#de8080" fill-rule="evenodd" d="m 391.54175,934.21166 c 0,0 10.10355,-1.40668 14.69438,-1.02297 4.63832,0.38771 13.8099,3.81307 13.8099,3.81307 0,0 -0.65451,0.55468 -2.50629,1.08854 -1.85806,0.53566 -6.4513,1.14026 -8.38377,1.15605 -2.65958,0.0217 -7.77809,-0.39435 -10.33907,-1.11808 -2.30175,-0.9586 -5.22797,-2.55762 -7.27515,-3.91661 z"/><path fill="#d9ede6" fill-rule="evenodd" d="m 397.94967,923.42061 -1.63131,0.64991 c 1.43574,2.71637 3.72663,3.62137 1.63131,-0.64991 z"/></g><path style="line-height:normal;text-indent:0;text-align:start;text-decoration-line:none;text-decoration-style:solid;text-decoration-color:#000;text-transform:none;block-progression:tb;white-space:normal;isolation:auto;mix-blend-mode:normal;solid-color:#000;solid-opacity:1" fill="#33552b" fill-rule="evenodd" stroke="#000" stroke-linecap="round" stroke-linejoin="round" d="m 401.42343,1136.9157 c -0.62916,0.4348 -1.22342,0.9148 -1.77478,1.4358 -2.20542,2.0839 -3.69235,4.7943 -4.21459,7.6802 -0.52225,2.8859 -0.071,5.9014 1.27909,8.5439 1.4777,2.8922 3.8535,5.1224 5.91145,7.3572 2.05087,2.2271 3.88226,4.6298 4.3469,7.2795 0.30559,1.7426 -2.7e-4,3.5918 -0.85512,5.1677 -0.85486,1.576 -2.27145,2.9024 -3.95861,3.7066 -1.68717,0.8043 -3.67048,1.0989 -5.54233,0.8228 -1.87185,-0.2761 -3.3884,-0.5997 -4.72644,-1.8502 -0.53469,0.3341 -1.03161,0.7034 -1.91771,0.71 1.65541,1.5471 4.00382,2.7083 6.31967,3.0499 2.31585,0.3416 4.72406,-0.016 6.81139,-1.011 2.08735,-0.9951 3.80805,-2.6061 4.86567,-4.5558 1.05761,-1.9498 1.42931,-4.1962 1.05123,-6.3523 -0.56986,-3.2497 -2.6929,-5.916 -4.81965,-8.2255 -2.11968,-2.3018 -4.33252,-4.4248 -5.61239,-6.9298 -1.16291,-2.2762 -1.55704,-4.9053 -1.1072,-7.3911 0.44983,-2.4858 1.74711,-4.8498 3.64676,-6.6448 1.89964,-1.795 4.41739,-3.0368 7.07872,-3.4908 2.66133,-0.454 5.48872,-0.1239 7.94771,0.9275 l 0.86598,-1.7572 c -2.8548,-1.2207 -6.09713,-1.5993 -9.18685,-1.0722 -2.3173,0.3953 -4.52141,1.2952 -6.4089,2.5996 z" color="#000" enable-background="accumulate" font-family="sans-serif" font-weight="400" overflow="visible"/><path fill="#33552b" stroke="#000" stroke-linecap="round" stroke-linejoin="round" d="m 423.41542,1139.3739 c -3.21391,-1.8464 -4.59179,-0.611 -6.11129,-0.611 -1.5195,0 -2.7513,-1.1449 -2.7513,-2.5572 0,-1.4123 1.2318,-2.5571 2.7513,-2.5571 1.5195,0 6.50085,1.6879 6.11129,5.7253 z"/></g></svg>