<svg id="Layer_1" data-name="Layer 1" xmlns="http://www.w3.org/2000/svg" viewBox="0 0 314.2 134.82"><defs><style>.cls-1{fill:#fe5757;}.cls-2{fill:#5271fe;}.cls-3{fill:#febc59;}.cls-4{fill:#030303;}.cls-5{fill:#040404;}.cls-6{fill:#f8f3f0;}.cls-7{fill:#feda59;}.cls-8{fill:#f6f3f1;}.cls-9{fill:#fb171a;}.cls-10{fill:#f8f3ef;}.cls-11{fill:#054caa;}.cls-12{fill:#fefefe;}</style></defs><path class="cls-1" d="M687.51,571.94a66,66,0,0,1-7,4.32A38.93,38.93,0,0,1,660,580.32a38.5,38.5,0,0,1-22-8.82,39.15,39.15,0,0,1,17.7-68.57c11-2.07,21,.32,30.17,6.76.55.39,1.1.76,1.64,1.13.3.29.58.6.89.87a39.17,39.17,0,0,1,6.16,52.7A48.44,48.44,0,0,1,687.51,571.94Zm-20.46-23.73c0-1.13.05-2.25,0-3.37a10.6,10.6,0,0,1,1.37-5.75,1.35,1.35,0,0,1,1.43-.85c2.46,0,4.92,0,7.37,0a10,10,0,0,0,5.3-1.62,3.22,3.22,0,0,0,1.26-1.35,1.18,1.18,0,0,0-.63-1.83,9.89,9.89,0,0,0-2.38-.71c-3.24-.58-6.53-.7-9.81-1-.91-.07-.92-.32-.6-1,.7-1.51,1.42-3,2-4.57a3.33,3.33,0,0,0-3.07-4.48c-2-.06-3.3.9-4,3s-.94,4.47-1.49,6.69a2.17,2.17,0,0,1-2,1.85c-2.45.38-4.91.1-7.36.23-1.08.05-1.26-.42-1.09-1.35a24.29,24.29,0,0,0,.47-5.58,5,5,0,0,0-.69-2.5c-.71-1.13-1.8-1.14-3-1.13s-1.27.77-1.56,1.49a59.62,59.62,0,0,0-2.57,8.07c-1.51,6.07-1.72,12.26-1.86,18.46a7.77,7.77,0,0,0,.58,3.42,2.41,2.41,0,0,0,4.25.47,4.24,4.24,0,0,0,.81-2.07c.38-2.81.34-5.65.54-8.47.31-4.13,2.24-5.21,5.27-4.93a32.37,32.37,0,0,0,4.62,0c.95-.05,1.11.24,1,1.12-.49,3.29-.9,6.59-1.37,9.88a4.37,4.37,0,0,0,1.83,4.49c1.42,1,2.93.61,4.38-.06a1.64,1.64,0,0,0,1-1.67C667,551.54,667.05,549.87,667.05,548.21Zm18.59.79c-1.46,0-2.38,1-2.39,2.71a2.52,2.52,0,0,0,2.73,2.57c1.29,0,2.81-1.19,2.79-2.19A3.82,3.82,0,0,0,685.64,549Z" transform="translate(-556.56 -502.2)"/><path class="cls-2" d="M687.51,571.94a48.44,48.44,0,0,0,7-7.55,39.17,39.17,0,0,0-6.16-52.7c-.31-.27-.59-.58-.89-.87a39.67,39.67,0,0,1,16.67-7.8A38.9,38.9,0,0,1,734,509c.17.12.35.22.52.33l1.27,1a39.19,39.19,0,0,1-1.17,62.95,40.94,40.94,0,0,1-17.21,6.78A38.66,38.66,0,0,1,700,578.56,43.64,43.64,0,0,1,687.51,571.94ZM726.44,520v0c-1.42,0-2.84,0-4.25,0-3.57-.12-5.72,1.61-6.94,4.9-1.31,3.54-2.84,7-4.23,10.5-.3.75-.69,1.17-1.55,1.11-.44,0-.89.17-1.34.17-2.74,0-3.86,2.31-2.16,4.26s1.23,3.48.26,5.38c-1.38,2.72-3,5.35-3.61,8.42a5.76,5.76,0,0,0,1.62,5.58,2.19,2.19,0,0,0,3.45-.29,11.94,11.94,0,0,0,1.83-4.18c1-3.59,1.81-7.22,3-10.77a6.41,6.41,0,0,1,4.83-4.6A150.39,150.39,0,0,1,736,536.73c1.6-.2,3-.62,3.93-2.19a1.28,1.28,0,0,0-.5-2,6.5,6.5,0,0,0-4.26-.81c-1.51.21-3,.37-4.56.54-3.83.44-7.66.87-11.48,1.33-1.13.14-1.41-.12-1-1.2a14.55,14.55,0,0,1,1.8-3.25,5.26,5.26,0,0,1,5-2.66,28.54,28.54,0,0,0,7-.16,2.73,2.73,0,0,0,2.4-2.76c.15-2.12-1.17-3.45-3.57-3.53C729.27,520,727.85,520,726.44,520Zm6.78,34.68a2.59,2.59,0,0,0,2.67,2.62c1.23,0,2.86-1.22,2.85-2.17a3.89,3.89,0,0,0-3.12-3.13C734.15,552,733.26,553,733.22,554.68Z" transform="translate(-556.56 -502.2)"/><path class="cls-3" d="M734.65,573.29a39.14,39.14,0,0,0,1.17-62.95l-1.27-1A39.54,39.54,0,0,1,749.36,503c11.58-2.2,22.18.18,31.54,7.37A39,39,0,0,1,762.78,580a38.83,38.83,0,0,1-27.26-6C735.21,573.79,734.94,573.52,734.65,573.29Zm26-20.15h0V555a4.07,4.07,0,0,0,0,.5c.14,1.37.62,1.82,1.87,1.78,1.44,0,1.78-.43,1.87-1.88a49.44,49.44,0,0,1,2-11.25,5.13,5.13,0,0,1,1.93-2.67,53.52,53.52,0,0,0,7-6,18.83,18.83,0,0,0,5.22-10,1.07,1.07,0,0,0-.74-1.35,1.8,1.8,0,0,0-2.14.48c-1.71,1.72-3.21,3.6-4.77,5.45a67.92,67.92,0,0,1-7.22,7.76c-.69.6-1,.58-1.29-.4-.44-1.82-1-3.62-1.47-5.42a12.22,12.22,0,0,1-.58-6,5.52,5.52,0,0,0-.23-2.84,1.19,1.19,0,0,0-.65-.85c-1.78-.73-2.71-.31-3.29,1.53A5.73,5.73,0,0,0,758,525c-.44,4.76-.49,9.47,1.93,13.83a10.4,10.4,0,0,1,1.35,6.11C761,547.66,760.87,550.4,760.68,553.14Zm14.44,1.12a2.61,2.61,0,0,0,2.64,2.54c1.21,0,2.9-1.18,2.93-2.11,0-1.26-1.75-3.13-3.08-3.19C776.09,551.43,775.21,552.41,775.12,554.26Z" transform="translate(-556.56 -502.2)"/><path class="cls-4" d="M616.9,611.38c-5.27,1.23-10.69,1.6-16,2.64-2.13.42-4.13,1.14-4.73,3.62a3.89,3.89,0,0,0-.12.49c-.26,1.68-.17,1.75,1.55,1.66,3.44-.18,6.69-1.28,10-2,1.65-.33,3.23-.4,4.37,1.22.37.53.44,1,0,1.43a10.54,10.54,0,0,1-1,1.07,28.16,28.16,0,0,1-15.61,5.92c-4.23.2-5.89-1.92-5.21-6.14a62.18,62.18,0,0,1,2.54-9.5c.18-.53.34-1.07.53-1.69-3.68,1.07-7.3.46-10.89.57a1.58,1.58,0,0,0-1.6,1,10.85,10.85,0,0,0-1.24,5.39c.09,2.79,0,5.58,0,8.37a1.9,1.9,0,0,1-1.23,2c-1.47.63-3,1-4.37-.09a4.29,4.29,0,0,1-1.7-4.28c.51-3.38.88-6.77,1.35-10.15.11-.83-.11-1-1-1a44.28,44.28,0,0,1-4.75,0c-3.19-.16-4.91,1.33-5.11,4.56q-.22,3.93-.43,7.86a6.12,6.12,0,0,1-.76,2.74,2.51,2.51,0,0,1-2.48,1.37,2.2,2.2,0,0,1-2-1.73,7.44,7.44,0,0,1-.44-2.06c-.12-9.43.71-18.7,4.29-27.56.45-1.1,1-1.7,2.24-1.65a2.69,2.69,0,0,1,2.65,1.71,7.94,7.94,0,0,1,.4,3.81c-.15,1.41-.3,2.82-.51,4.22-.07.5,0,.83.55.83a51.43,51.43,0,0,0,8.23-.24,1.82,1.82,0,0,0,1.65-1.59c.45-2.24.9-4.48,1.51-6.68.67-2.41,2.17-3.45,4.35-3.25a3.32,3.32,0,0,1,2.84,4.35c-.61,1.63-1.37,3.21-2.07,4.8-.2.46-.45.81.39.89,3.76.36,7.57.37,11.27,1.27.54.13.64-.17.79-.53.42-1,.86-1.89,1.27-2.84a2.79,2.79,0,0,1,2.3-1.68,30.39,30.39,0,0,1,8-.19,6.7,6.7,0,0,1,4,2.12c.49.48.36.94.22,1.48s-.61.56-1.07.55a43.68,43.68,0,0,0-6.37,0,8.29,8.29,0,0,0-2.86.79,3.47,3.47,0,0,0-1.88,3.52c0,.87.57.65,1,.63,3.25-.17,6.49-.34,9.74-.55a36.65,36.65,0,0,1,5.24-.11c.74.07,1-.2,1-.83a2.07,2.07,0,0,1,1.65-2,2.91,2.91,0,0,0,1.8-1.44,2.11,2.11,0,0,1,2.56-1,8.14,8.14,0,0,0,5.21-.49,18.91,18.91,0,0,1,9.68-1.21c2.5.3,3.62,1.79,3,4.24a6.05,6.05,0,0,1-3.58,4.07,18.28,18.28,0,0,1-5.25,1.4c3.25,2.17,6.24,4.21,8.51,7.06.45-.09.34-.46.41-.71a135.11,135.11,0,0,1,5-14.59,4.24,4.24,0,0,1,4.15-2.93,54.33,54.33,0,0,1,6.12,0,7.06,7.06,0,0,1,4.51,2.16c.53.53.39,1,.22,1.57s-.7.49-1.11.48a43.68,43.68,0,0,0-6.37.05,7.4,7.4,0,0,0-3.17,1,3.18,3.18,0,0,0-1.25,1.51c-.71,1.85-.28,2.49,1.63,2.39l12.72-.69a7.29,7.29,0,0,1,3.42.57c.49.23,1.05.5,1,1.13s-.65.9-1.24,1c-3.61.81-7.28,1.34-11,1.81a30.37,30.37,0,0,0-6.35,1.24,4.38,4.38,0,0,0-3.23,4.26c-.06.93.28,1.12,1.13,1.09,3.19-.13,6.22-1.05,9.3-1.73a8.76,8.76,0,0,1,3.33-.42c.2,0,.42,0,.61.08,1.88.53,2.33,2.15.92,3.45-2.82,2.6-6.33,3.94-9.88,5.14a15.77,15.77,0,0,1-8.33.93,4.84,4.84,0,0,1-2.7-2c-1.82-2.15-3.14-4.8-5.95-6-1.67-.73-3.27-1.63-4.87-2.51a19.08,19.08,0,0,0-5.18-2c-1.67-.36-1.9-1.27-.85-2.61a6.8,6.8,0,0,1,3.3-2.16c1.85-.62,3.72-1.18,5.57-1.78a4.68,4.68,0,0,0,.91-.41c.54-.32,1.54-.54,1.33-1.19s-1.2-.4-1.84-.28a29.89,29.89,0,0,0-9,3.18,2.78,2.78,0,0,0-1.45,1.93c-.81,3.65-2.33,7.1-3,10.79a14.46,14.46,0,0,1-1.94,4.83,4.12,4.12,0,0,1-1.23,1.39,1.72,1.72,0,0,1-1.85.34c-.72-.36-.49-1-.5-1.53-.08-3.19,1-6.12,2.12-9,.83-2.17,1.68-4.33,2.31-6.57,0-.1,0-.2,0-.3Z" transform="translate(-556.56 -502.2)"/><path class="cls-4" d="M714,613a102.83,102.83,0,0,0-14.24,2.85c-1.2.32-2.39.69-3.59,1a5.11,5.11,0,0,0-3.49,3.27,80.53,80.53,0,0,0-2.68,9.2,26.87,26.87,0,0,1-1.85,5.67c-.51.94-1,2-2.33,2a3.11,3.11,0,0,1-2.79-2,6.44,6.44,0,0,1-.42-5.07,23.45,23.45,0,0,1,1.76-4.38c.61-1.19,1.17-2.39,1.83-3.54a3.89,3.89,0,0,0-.33-5c-1.76-2.19-.8-4.2,2-4.33a3.42,3.42,0,0,0,3.57-2.72c1-3,2.32-5.86,3.49-8.78a16.71,16.71,0,0,1,1.33-2.68,4.7,4.7,0,0,1,3.88-2.34,74.86,74.86,0,0,1,10.48-.22c2.55.14,3.65,1.5,3.36,3.78a2.63,2.63,0,0,1-2.25,2.48c-2.18.45-4.4.14-6.6.21-1.4,0-2.84-.2-4,.93a12.79,12.79,0,0,0-3.37,5.46c-.19.62,0,.85.76.76q8.06-1,16.11-1.92a1.9,1.9,0,0,0,1.84-1.3,20.69,20.69,0,0,1,1.72-3.17c1.78-2.85,4.14-4.25,7.72-3.81,5.46.66,9.71,3.93,10.91,8.93,1.87,7.85-4,17.26-11.78,18.76-5.39,1-10.17-1.57-11.5-6.32C713,618.76,713.1,617,714,613Zm16.23-3.77c0-3.92-1.6-5.63-4.71-5.46a4.39,4.39,0,0,0-3.51,2.3,30.86,30.86,0,0,0-3.81,9.14A9.73,9.73,0,0,0,718,619c.47,3.56,3.41,4.95,6.48,3.07a10.09,10.09,0,0,0,2.78-2.82C729.56,616.11,729.84,612.44,730.25,609.26Z" transform="translate(-556.56 -502.2)"/><path class="cls-4" d="M824.49,615.2a20.92,20.92,0,0,1-5.51,8.68A12.11,12.11,0,0,1,807.55,627a9,9,0,0,1-6.73-10.36,38,38,0,0,1,4.29-12.29c.18-.32.39-.64.59-.95,1.82-3,4.22-4.4,7.91-3.93,5.27.69,9.5,3.88,10.74,8.67.26,1,.41,2.11.59,3.21q.39-3.76.77-7.54a13,13,0,0,0,.18-2.23c-.06-1.06.51-1.36,1.38-1.51a3.12,3.12,0,0,1,3.48,1.83,6.44,6.44,0,0,1,.53,4.25c-.78,3.18-1.59,6.36-2.45,9.53a5.53,5.53,0,0,0,.52,4.09c.62,1.22,1.32,1.42,2.55.79a7.16,7.16,0,0,0,2.56-2.51,37.52,37.52,0,0,0,4.25-8.7c1.07-3,2.08-6,3.11-8.94a1.66,1.66,0,0,1,2.88-.56A4.22,4.22,0,0,1,846,604c-1.67,6.67-4.19,13-8.57,18.36a10.81,10.81,0,0,1-6.06,4.15c-2.18.47-3.5,0-4.61-2a17,17,0,0,1-2.22-8.34Zm-6.71-6c.07-3.88-1.58-5.63-4.74-5.43a4.55,4.55,0,0,0-3.56,2.43,29.89,29.89,0,0,0-3.77,9.3,9.53,9.53,0,0,0-.21,3.1c.37,4,3.62,5.44,6.88,3.17a9.87,9.87,0,0,0,2-2C817,616.6,817.44,612.77,817.78,609.23Zm6.83,2.68c-.07.58-.29.93.22,1.29A1.05,1.05,0,0,0,824.61,611.91Zm0,2.48c-.07,0-.15-.08-.19-.06s-.07.12-.1.18.14.07.18,0S824.55,614.45,824.59,614.39Z" transform="translate(-556.56 -502.2)"/><path class="cls-5" d="M754.76,611.45c1.39,1,2.65,1.84,3.86,2.75a23.86,23.86,0,0,1,4.6,4.38c1.34,1.74,1.2,3.53.37,5.4-.36.82-.8.85-1.35.16-.1-.13-.24-.23-.33-.37-1.75-2.92-4.5-4.55-7.49-5.92-2.44-1.12-4.67-2.65-7.4-3.15-1.53-.28-1.77-1.3-.78-2.56a6.88,6.88,0,0,1,3.4-2.21c2.05-.69,4.12-1.31,6.14-2,.65-.24,1.79-.56,1.58-1.28s-1.35-.4-2.07-.27a32,32,0,0,0-8.44,2.94,3.28,3.28,0,0,0-1.85,2.36c-.76,3.57-2.28,6.94-2.93,10.55a13.91,13.91,0,0,1-2.07,5,3.91,3.91,0,0,1-1.4,1.4c-1.26.69-2.08.2-2.09-1.23a22.67,22.67,0,0,1,1.84-8.35c1-2.67,2-5.37,2.9-8.09.24-.73.09-1-.62-1.2-.49-.15-1.39-.16-1.22-.93.21-.93-.09-2.16,1.21-2.64a4.69,4.69,0,0,0,2.6-2,1.85,1.85,0,0,1,2.2-.78,8.85,8.85,0,0,0,5.57-.56,18.67,18.67,0,0,1,9.31-1.14c2.77.33,3.9,1.92,3.09,4.59a6.07,6.07,0,0,1-3.45,3.73A20.23,20.23,0,0,1,754.76,611.45Z" transform="translate(-556.56 -502.2)"/><path class="cls-4" d="M787.72,597.19a9.94,9.94,0,0,0,.5,4.34c.63,2.07,1.21,4.15,1.71,6.24.23,1,.51.84,1.1.33a62.1,62.1,0,0,0,6.69-7.07c1.48-1.74,3-3.49,4.45-5.22a18.4,18.4,0,0,1,1.32-1.33c.62-.57,1.31-.34,2-.09s.58.94.49,1.49a17.76,17.76,0,0,1-4.39,8.93,52.1,52.1,0,0,1-8,7.13,4.64,4.64,0,0,0-1.61,2.29A48.4,48.4,0,0,0,789.81,626c-.07,1.18-.66,1.45-1.63,1.58s-1.75-.16-2-1.31c-.48-2.21,0-4.39.12-6.58.07-1.54.18-3.08.38-4.61.31-2.45-.66-4.55-1.7-6.64-2.2-4.41-2.12-9.06-1.51-13.76a4,4,0,0,1,.27-1c.33-.86.61-1.67,1.9-1.44,1.67.31,2,.47,2.11,2a12.73,12.73,0,0,1,0,1.38C787.81,596,787.76,596.45,787.72,597.19Z" transform="translate(-556.56 -502.2)"/><path class="cls-5" d="M870.73,599.84a7.32,7.32,0,0,1-7.54,7.41,7.45,7.45,0,0,1-7.42-7.46,7.54,7.54,0,0,1,7.48-7.56C867.58,592.16,871.11,596.12,870.73,599.84Zm-4.05,3.55c-.35-.71-.69-1.41-1-2.1-.21-.38-.33-.65.11-1A2.44,2.44,0,0,0,864,596c-.87,0-1.75,0-2.62,0s-1,.14-1,.94c.06,1.75,0,3.5,0,5.25,0,.61-.36,1.38.91,1.38s1-.62,1-1.33c0-.25,0-.5,0-.75s0-.51.34-.56.59-.07.76.26a3.72,3.72,0,0,1,.39.77C864.22,603.5,865.25,603.77,866.68,603.39Z" transform="translate(-556.56 -502.2)"/><path class="cls-6" d="M667.05,548.21c0,1.66,0,3.33,0,5a1.64,1.64,0,0,1-1,1.67c-1.45.67-3,1.08-4.38.06a4.37,4.37,0,0,1-1.83-4.49c.47-3.29.88-6.59,1.37-9.88.13-.88,0-1.17-1-1.12a32.37,32.37,0,0,1-4.62,0c-3-.28-5,.8-5.27,4.93-.2,2.82-.16,5.66-.54,8.47a4.24,4.24,0,0,1-.81,2.07,2.41,2.41,0,0,1-4.25-.47,7.77,7.77,0,0,1-.58-3.42c.14-6.2.35-12.39,1.86-18.46a59.62,59.62,0,0,1,2.57-8.07c.29-.72.49-1.49,1.56-1.49s2.26,0,3,1.13a5,5,0,0,1,.69,2.5,24.29,24.29,0,0,1-.47,5.58c-.17.93,0,1.4,1.09,1.35,2.45-.13,4.91.15,7.36-.23a2.17,2.17,0,0,0,2-1.85c.55-2.22.76-4.51,1.49-6.69s2-3.1,4-3a3.33,3.33,0,0,1,3.07,4.48c-.59,1.56-1.31,3.06-2,4.57-.32.7-.31,1,.6,1,3.28.26,6.57.38,9.81,1a9.89,9.89,0,0,1,2.38.71,1.18,1.18,0,0,1,.63,1.83,3.22,3.22,0,0,1-1.26,1.35,10,10,0,0,1-5.3,1.62c-2.45,0-4.91,0-7.37,0a1.35,1.35,0,0,0-1.43.85,10.6,10.6,0,0,0-1.37,5.75C667.1,546,667.05,547.08,667.05,548.21Z" transform="translate(-556.56 -502.2)"/><path class="cls-7" d="M685.64,549a3.82,3.82,0,0,1,3.13,3.09c0,1-1.5,2.19-2.79,2.19a2.52,2.52,0,0,1-2.73-2.57C683.26,550,684.18,549,685.64,549Z" transform="translate(-556.56 -502.2)"/><path class="cls-8" d="M726.44,520c1.41,0,2.83,0,4.24,0,2.4.08,3.72,1.41,3.57,3.53a2.73,2.73,0,0,1-2.4,2.76,28.54,28.54,0,0,1-7,.16,5.26,5.26,0,0,0-5,2.66,14.55,14.55,0,0,0-1.8,3.25c-.38,1.08-.1,1.34,1,1.2,3.82-.46,7.65-.89,11.48-1.33,1.52-.17,3-.33,4.56-.54a6.5,6.5,0,0,1,4.26.81,1.28,1.28,0,0,1,.5,2c-.91,1.57-2.33,2-3.93,2.19a150.39,150.39,0,0,0-18.68,3.79,6.41,6.41,0,0,0-4.83,4.6c-1.15,3.55-2,7.18-3,10.77a11.94,11.94,0,0,1-1.83,4.18,2.19,2.19,0,0,1-3.45.29,5.76,5.76,0,0,1-1.62-5.58c.59-3.07,2.23-5.7,3.61-8.42,1-1.9,1.38-3.49-.26-5.38s-.58-4.26,2.16-4.26c.45,0,.9-.2,1.34-.17.86.06,1.25-.36,1.55-1.11,1.39-3.5,2.92-7,4.23-10.5,1.22-3.29,3.37-5,6.94-4.9,1.41.05,2.83,0,4.25,0Z" transform="translate(-556.56 -502.2)"/><path class="cls-9" d="M733.22,554.68c0-1.73.93-2.72,2.4-2.68a3.89,3.89,0,0,1,3.12,3.13c0,1-1.62,2.19-2.85,2.17A2.59,2.59,0,0,1,733.22,554.68Z" transform="translate(-556.56 -502.2)"/><path class="cls-10" d="M760.68,553.14c.19-2.74.34-5.48.59-8.21a10.4,10.4,0,0,0-1.35-6.11c-2.42-4.36-2.37-9.07-1.93-13.83a5.73,5.73,0,0,1,.28-1.21c.58-1.84,1.51-2.26,3.29-1.53a1.19,1.19,0,0,1,.65.85,5.52,5.52,0,0,1,.23,2.84,12.22,12.22,0,0,0,.58,6c.52,1.8,1,3.6,1.47,5.42.24,1,.6,1,1.29.4A67.92,67.92,0,0,0,773,530c1.56-1.85,3.06-3.73,4.77-5.45a1.8,1.8,0,0,1,2.14-.48,1.07,1.07,0,0,1,.74,1.35,18.83,18.83,0,0,1-5.22,10,53.52,53.52,0,0,1-7,6,5.13,5.13,0,0,0-1.93,2.67,49.44,49.44,0,0,0-2,11.25c-.09,1.45-.43,1.83-1.87,1.88-1.25,0-1.73-.41-1.87-1.78a4.07,4.07,0,0,1,0-.5v-1.87Z" transform="translate(-556.56 -502.2)"/><path class="cls-11" d="M775.12,554.26c.09-1.85,1-2.83,2.49-2.76,1.33.06,3.13,1.93,3.08,3.19,0,.93-1.72,2.15-2.93,2.11A2.61,2.61,0,0,1,775.12,554.26Z" transform="translate(-556.56 -502.2)"/><path class="cls-12" d="M616.9,611.38l.29-.06c0,.1,0,.2,0,.3Z" transform="translate(-556.56 -502.2)"/><path class="cls-4" d="M824.61,611.91a1.05,1.05,0,0,1,.22,1.29C824.32,612.84,824.54,612.49,824.61,611.91Z" transform="translate(-556.56 -502.2)"/><path class="cls-4" d="M824.59,614.39c0,.06-.06.14-.11.17s-.12,0-.18,0,.05-.15.1-.18S824.52,614.37,824.59,614.39Z" transform="translate(-556.56 -502.2)"/><path class="cls-5" d="M862.35,598.24c-.11-.52.08-.86.86-.79s1.36.16,1.33,1.08-.72,1-1.41,1C862.11,599.65,862.4,598.92,862.35,598.24Z" transform="translate(-556.56 -502.2)"/></svg>